<!-- assets/icons/flower.svg -->
<svg fill="currentColor" height="180" viewBox="0 0 24 24" width="180" xmlns="http://www.w3.org/2000/svg">
  <path d="M12 2C10.5 2 9 3 8 4C6.5 3 5 2.5 3.5 3C4 5 5 7 6 8.5C4 9.5 2 10 1 12C2.5 13 4.5 13.5 6 13C5 15 4 17 3 19C5 18.5 7 17.5 8.5 16C9.5 18 10.5 20 12 22C13.5 20 14.5 18 15.5 16C17 17.5 19 18.5 21 19C20 17 19 15 18 13C19.5 13.5 21.5 13 23 12C22 10 20 9.5 18 8.5C19 7 20 5 20.5 3C19 2.5 17.5 3 16 4C15 3 13.5 2 12 2ZM12 5C13.5 5 14.5 6 15 7C14 7.5 13 7.5 12 8C11 7.5 10 7.5 9 7C9.5 6 10.5 5 12 5Z"></path>
</svg>